<svg width="812" height="861" viewBox="0 0 812 861" fill="none" xmlns="http://www.w3.org/2000/svg">
<g filter="url(#filter0_d)">
<path d="M743.313 136.06C665.501 152.637 422.281 154.168 356.693 141.523C264.631 123.774 182.304 90.0397 131.78 51.164C140.691 39.6014 228.289 23.1514 322.392 20.9299C412.408 18.8048 507.995 30.3137 562.851 45.0725C562.851 45.0725 767.328 125.379 743.313 136.06Z" fill="#DADADA"/>
</g>
<mask id="mask0" mask-type="alpha" maskUnits="userSpaceOnUse" x="145" y="34" width="615" height="145">
<path d="M752.643 146.597C678.404 157.35 439.069 157.11 376 146.597C287.474 131.842 200.123 95.0237 151 65.5C159.323 57.1615 257.148 54.0419 347.26 54.1479C433.459 54.2493 525.247 64.4802 578.073 76.3481C578.073 76.3481 775.453 139.186 752.643 146.597Z" fill="#C4C4C4"/>
</mask>
<g mask="url(#mask0)">
<g filter="url(#filter1_d)">
<path d="M743.313 136.06C665.501 152.637 422.281 154.168 356.693 141.523C264.631 123.774 182.304 90.0397 131.78 51.164C140.691 39.6014 228.289 23.1514 322.392 20.9299C412.408 18.8048 507.995 30.3137 562.851 45.0725C562.851 45.0725 767.328 125.379 743.313 136.06Z" fill="#B9B8B8"/>
</g>
</g>
<rect x="770" y="489" width="18" height="8" fill="#4B4B4B"/>
<path d="M751.619 645.541C776.269 650.138 802.379 619.681 809.937 577.514C817.495 535.347 803.639 497.438 778.989 492.842L731.381 482.459C706.731 477.862 680.621 508.319 673.063 550.486C665.505 592.653 679.361 630.562 704.011 635.158L751.619 645.541Z" fill="#565656"/>
<mask id="mask1" mask-type="alpha" maskUnits="userSpaceOnUse" x="729" y="492" width="96" height="161">
<ellipse cx="777.052" cy="572.662" rx="33.6557" ry="75.0347" transform="rotate(11.4152 777.052 572.662)" fill="#C4C4C4"/>
</mask>
<g mask="url(#mask1)">
<path d="M751.619 645.541C776.269 650.138 802.379 619.681 809.937 577.514C817.495 535.347 803.639 497.438 778.989 492.842L731.381 482.459C706.731 477.862 680.621 508.319 673.063 550.486C665.505 592.653 679.361 630.562 704.011 635.158L751.619 645.541Z" fill="#434343"/>
</g>
<mask id="mask2" mask-type="alpha" maskUnits="userSpaceOnUse" x="760" y="537" width="41" height="78">
<ellipse cx="780.311" cy="575.738" rx="15.7757" ry="37.0472" transform="rotate(7.22795 780.311 575.738)" fill="#C4C4C4"/>
</mask>
<g mask="url(#mask2)">
<path d="M751.619 645.541C776.269 650.138 802.379 619.681 809.937 577.514C817.495 535.347 803.639 497.438 778.989 492.842L731.381 482.459C706.731 477.862 680.621 508.319 673.063 550.486C665.505 592.653 679.361 630.562 704.011 635.158L751.619 645.541Z" fill="black"/>
</g>
<mask id="mask3" mask-type="alpha" maskUnits="userSpaceOnUse" x="760" y="537" width="31" height="77">
<ellipse cx="775.406" cy="575.116" rx="10.8309" ry="37.0472" transform="rotate(7.22795 775.406 575.116)" fill="#C4C4C4"/>
</mask>
<g mask="url(#mask3)">
<ellipse cx="780.311" cy="575.738" rx="15.7757" ry="37.0472" transform="rotate(7.22795 780.311 575.738)" fill="#727272"/>
</g>
<path d="M574 600L716 596C716 596 711 615 707 622.5C698 633.5 647 655 647 655L574 600Z" fill="#3C3C3C"/>
<mask id="mask4" mask-type="alpha" maskUnits="userSpaceOnUse" x="588" y="522" width="147" height="125">
<rect x="588.084" y="580.29" width="127.232" height="73.6806" transform="rotate(-26.7654 588.084 580.29)" fill="#C4C4C4"/>
</mask>
<g mask="url(#mask4)">
<path d="M574 600L716 596C716 596 711 615 707 622.5C698 633.5 647 655 647 655L574 600Z" fill="#545454"/>
</g>
<path d="M505.393 403C505.393 403 688.128 405.875 777 448C792 470.5 792 497 792 499C790 497.5 786 495 784.5 494.5C784.5 494.5 782.5 491 779.5 490C764.099 490 750.5 504 742.068 516.388C733.635 528.777 725.827 581.599 711.622 602.862C725.827 581.599 697.418 624.125 711.622 602.862C697.418 624.125 400 554.184 400 554.184L505.393 403Z" fill="#DADADA"/>
<mask id="mask5" mask-type="alpha" maskUnits="userSpaceOnUse" x="522" y="494" width="198" height="127">
<path d="M533 495.5C584 511.5 682.5 513 682.5 513L720 603L631 621C631 621 482 479.5 533 495.5Z" fill="#C4C4C4"/>
</mask>
<g mask="url(#mask5)">
<path d="M505.393 403C505.393 403 688.128 405.875 777 448C792 470.5 792 497 792 499C790 497.5 786 495 784.5 494.5C784.5 494.5 782.5 491 779.5 490C764.099 490 750.5 504 742.068 516.388C733.635 528.777 725.827 581.599 711.622 602.862C725.827 581.599 697.418 624.125 711.622 602.862C697.418 624.125 400 554.184 400 554.184L505.393 403Z" fill="#C4C4C4"/>
</g>
<mask id="mask6" mask-type="alpha" maskUnits="userSpaceOnUse" x="643" y="419" width="210" height="208">
<path d="M678 513C678 513 758 477.5 801 419L828.5 567.5L695.5 626.5C695.5 585.5 695.5 560 678 513Z" fill="#C4C4C4"/>
</mask>
<g mask="url(#mask6)">
<path d="M505.393 403C505.393 403 688.128 405.875 777 448C792 470.5 792 497 792 499C790 497.5 786 495 784.5 494.5C784.5 494.5 782.5 491 779.5 490C764.099 490 750.5 504 742.068 516.388C733.635 528.777 725.827 581.599 711.622 602.862C725.827 581.599 697.418 624.125 711.622 602.862C697.418 624.125 400 554.184 400 554.184L505.393 403Z" fill="#A3A3A3"/>
</g>
<path d="M418 439L442.448 137.189C442.731 133.693 445.651 131 449.158 131H638.024C641.645 131 644.617 133.863 644.752 137.481L656 439" stroke="#212121" stroke-width="13.4647"/>
<path d="M389.869 302.002C391.858 299.119 394.482 296.825 397.825 295.783C439.796 282.703 629.918 268.075 679.392 295.665C681.516 296.849 682.881 298.917 683.428 301.286C695.041 351.524 683.094 392.9 663.737 425.414C662.209 427.982 659.53 429.666 656.565 430.036C514.995 447.707 405.263 434.486 377.588 430.486C373.459 429.889 370.288 426.718 369.578 422.608C357.83 354.573 370.165 330.563 389.869 302.002Z" fill="#1A1A1A"/>
<mask id="mask7" mask-type="alpha" maskUnits="userSpaceOnUse" x="357" y="269" width="307" height="146">
<path d="M387.895 298.31C389.959 295.498 392.584 293.241 395.901 292.162C435.311 279.336 608 256.195 654.28 280.587C656.446 281.729 657.849 283.809 658.409 286.192C669.713 334.319 660.418 384.102 641.097 414.222C641.097 414.222 579 400.941 515 400.941C444.831 402.211 392.134 409.32 371.283 412.584C365.842 413.435 360.629 409.816 359.791 404.373C350.698 345.32 369.249 323.711 387.895 298.31Z" fill="#1A1A1A"/>
</mask>
<g mask="url(#mask7)">
<path d="M389.869 302.002C391.858 299.119 394.482 296.825 397.825 295.783C439.796 282.703 629.918 268.075 679.392 295.665C681.516 296.849 682.881 298.917 683.429 301.286C695.041 351.524 683.094 392.9 663.737 425.414C662.209 427.982 659.53 429.666 656.565 430.036C514.995 447.707 405.263 434.486 377.588 430.486C373.459 429.889 370.288 426.718 369.578 422.608C357.83 354.573 370.165 330.563 389.869 302.002Z" fill="#3F3F3F"/>
</g>
<path d="M380.5 421.367C485.967 393.824 622.332 409.055 663.455 420.047C666.496 420.86 669.267 422.452 671.116 425C681.004 438.63 678 458.367 678 458.367C665.349 477.786 625.473 492.521 592 499C514.5 514 337.5 492.867 279 458.367C315.058 436.464 339.679 432.028 380.5 421.367Z" fill="#1A1A1A"/>
<mask id="mask8" mask-type="alpha" maskUnits="userSpaceOnUse" x="279" y="396" width="391" height="84">
<path d="M375.716 410.448C471.358 386.184 608.999 397.781 656.991 407.729C663.912 409.164 669.483 414.691 669.245 421.755C668.102 455.527 619.001 461.302 599.5 474C525.653 487.885 334.743 476.631 279 444.696C313.359 424.421 336.819 420.315 375.716 410.448Z" fill="#6A6A6A"/>
</mask>
<g mask="url(#mask8)">
<path d="M380.5 421.367C485.967 393.824 622.332 409.055 663.455 420.047C666.496 420.86 669.224 422.477 671.273 424.867C701.64 460.279 642.835 489.161 592 499C514.5 514 337.5 492.867 279 458.367C315.058 436.464 339.679 432.028 380.5 421.367Z" fill="#3F3F3F"/>
</g>
<path d="M153.5 481.5L180.701 83.8955C180.942 80.3639 183.878 77.6226 187.418 77.6226H533.569C537.287 77.6226 540.301 80.6368 540.301 84.355V381.5" stroke="#212121" stroke-width="13.4647"/>
<path d="M108.636 800.343C141.852 806.929 177.035 763.286 187.22 702.864C197.404 642.442 178.734 588.122 145.518 581.535L81.3643 566.657C48.1483 560.071 12.9651 603.714 2.7804 664.136C-7.4043 724.558 11.2663 778.878 44.4823 785.465L108.636 800.343Z" fill="#383838"/>
<mask id="mask9" mask-type="alpha" maskUnits="userSpaceOnUse" x="59" y="582" width="150" height="229">
<ellipse cx="134.195" cy="696.877" rx="58.3617" ry="106.181" transform="rotate(9.13039 134.195 696.877)" fill="#C4C4C4"/>
</mask>
<g mask="url(#mask9)">
<path d="M108.636 800.343C141.852 806.929 177.035 763.286 187.22 702.864C197.404 642.442 178.734 588.122 145.518 581.535L81.3643 566.657C48.1483 560.071 12.9651 603.714 2.7804 664.136C-7.4043 724.558 11.2663 778.878 44.4823 785.465L108.636 800.343Z" fill="black"/>
</g>
<path d="M119.1 593H606.1L652.5 665.5C652.5 665.5 464 751 334.5 779C217.611 789.504 140.5 751 91 723C68.0743 673.777 119.1 593 119.1 593Z" fill="#515151"/>
<mask id="mask10" mask-type="alpha" maskUnits="userSpaceOnUse" x="296" y="603" width="598" height="421">
<path d="M894 808.5C894 927.517 763.491 1024 602.5 1024C441.509 1024 296 927.517 296 808.5C296 689.483 441.509 603 602.5 603C763.491 603 894 689.483 894 808.5Z" fill="#C4C4C4"/>
</mask>
<g mask="url(#mask10)">
<path d="M119.1 593H606.1L652.5 665.5C652.5 665.5 464 751 334.5 779C217.611 789.504 140.5 751 91 723C68.0743 673.777 119.1 593 119.1 593Z" fill="#383838"/>
</g>
<path d="M172.397 448.716C174.165 447.536 176.041 446.727 178.1 446.202C315.942 411.01 476.992 410.875 563.796 459.853C566.271 461.25 568.379 463.189 569.865 465.611C583.455 487.76 581.277 510.747 599.5 546C633.489 611.752 667 665.5 667 665.5L646.93 675.676C638.071 680.168 627.218 677.521 620.69 670.034C604.219 651.145 570.787 618.915 533.454 617.545C531.828 617.485 530.205 617.699 528.625 618.087C434.776 641.182 332.57 651.876 216 641C95.1027 629.72 55.6832 618.44 43.9326 610.935C37.8557 607.053 41.2808 597.494 42.6785 590.42C54.6935 529.609 154.895 460.4 172.397 448.716Z" fill="#DADADA"/>
<mask id="mask11" mask-type="alpha" maskUnits="userSpaceOnUse" x="392" y="421" width="485" height="442">
<path d="M876.5 642C876.5 764.055 776.659 863 653.5 863C530.34 863 392 806.154 392 684.099C392 562.044 530.34 421 653.5 421C776.659 421 876.5 519.945 876.5 642Z" fill="#5F5F5F"/>
</mask>
<g mask="url(#mask11)">
<path d="M172.397 448.716C174.165 447.536 176.041 446.727 178.1 446.202C315.942 411.01 476.992 410.875 563.796 459.853C566.271 461.25 568.379 463.189 569.865 465.611C583.455 487.76 581.277 510.747 599.5 546C633.489 611.752 667 665.5 667 665.5L646.93 675.676C638.071 680.168 627.218 677.521 620.69 670.034C604.219 651.145 570.787 618.915 533.454 617.545C531.828 617.485 530.205 617.699 528.625 618.087C434.776 641.182 332.57 651.876 216 641C95.1027 629.72 55.6832 618.44 43.9326 610.935C37.8557 607.053 41.2808 597.494 42.6785 590.42C54.6935 529.609 154.895 460.4 172.397 448.716Z" fill="#BABABA"/>
</g>
<path d="M546.73 379C546.73 375.283 543.717 372.27 540 372.27C536.283 372.27 533.27 375.283 533.27 379H546.73ZM560.446 502.944C562.9 505.735 567.153 506.008 569.944 503.554C572.735 501.1 573.008 496.847 570.554 494.056L560.446 502.944ZM533.27 379V465.729H546.73V379H533.27ZM537.436 476.776L560.446 502.944L570.554 494.056L547.544 467.888L537.436 476.776ZM533.27 465.729C533.27 469.795 534.751 473.722 537.436 476.776L547.544 467.888C547.019 467.291 546.73 466.524 546.73 465.729H533.27Z" fill="black"/>
<path d="M526.636 860.343C559.852 866.929 595.035 823.286 605.22 762.864C615.404 702.442 596.734 648.122 563.518 641.535L499.364 626.657C466.148 620.071 430.965 663.714 420.78 724.136C410.596 784.558 429.266 838.878 462.482 845.465L526.636 860.343Z" fill="#565656"/>
<mask id="mask12" mask-type="alpha" maskUnits="userSpaceOnUse" x="486" y="637" width="137" height="232">
<ellipse cx="554.923" cy="753.061" rx="52.2128" ry="108.556" transform="rotate(8.70431 554.923 753.061)" fill="#C4C4C4"/>
</mask>
<g mask="url(#mask12)">
<path d="M526.636 860.343C559.852 866.929 595.035 823.286 605.22 762.864C615.404 702.442 596.734 648.122 563.518 641.535L499.364 626.657C466.148 620.071 430.965 663.714 420.78 724.136C410.596 784.558 429.266 838.878 462.482 845.465L526.636 860.343Z" fill="#434343"/>
</g>
<mask id="mask13" mask-type="alpha" maskUnits="userSpaceOnUse" x="524" y="699" width="69" height="114">
<ellipse cx="558.645" cy="755.645" rx="26.0144" ry="53.3224" transform="rotate(8.70431 558.645 755.645)" fill="#C4C4C4"/>
</mask>
<g mask="url(#mask13)">
<path d="M526.636 860.343C559.852 866.929 595.035 823.286 605.22 762.864C615.404 702.442 596.734 648.122 563.518 641.535L499.364 626.657C466.148 620.071 430.965 663.714 420.78 724.136C410.596 784.558 429.266 838.878 462.482 845.465L526.636 860.343Z" fill="black"/>
</g>
<mask id="mask14" mask-type="alpha" maskUnits="userSpaceOnUse" x="523" y="699" width="55" height="111">
<ellipse cx="550.659" cy="754.499" rx="18.9347" ry="53.2467" transform="rotate(8.70431 550.659 754.499)" fill="#C4C4C4"/>
</mask>
<g mask="url(#mask14)">
<ellipse cx="558.306" cy="755.67" rx="26.6712" ry="53.2467" transform="rotate(8.70431 558.306 755.67)" fill="#727272"/>
</g>
<defs>
<filter id="filter0_d" x="123.088" y="0" width="631.72" height="180.102" filterUnits="userSpaceOnUse" color-interpolation-filters="sRGB">
<feFlood flood-opacity="0" result="BackgroundImageFix"/>
<feColorMatrix in="SourceAlpha" type="matrix" values="0 0 0 0 0 0 0 0 0 0 0 0 0 0 0 0 0 0 127 0"/>
<feOffset dy="2.69294"/>
<feGaussianBlur stdDeviation="1.34647"/>
<feColorMatrix type="matrix" values="0 0 0 0 0 0 0 0 0 0 0 0 0 0 0 0 0 0 0.25 0"/>
<feBlend mode="normal" in2="BackgroundImageFix" result="effect1_dropShadow"/>
<feBlend mode="normal" in="SourceGraphic" in2="effect1_dropShadow" result="shape"/>
</filter>
<filter id="filter1_d" x="123.088" y="0" width="631.72" height="180.102" filterUnits="userSpaceOnUse" color-interpolation-filters="sRGB">
<feFlood flood-opacity="0" result="BackgroundImageFix"/>
<feColorMatrix in="SourceAlpha" type="matrix" values="0 0 0 0 0 0 0 0 0 0 0 0 0 0 0 0 0 0 127 0"/>
<feOffset dy="2.69294"/>
<feGaussianBlur stdDeviation="1.34647"/>
<feColorMatrix type="matrix" values="0 0 0 0 0 0 0 0 0 0 0 0 0 0 0 0 0 0 0.25 0"/>
<feBlend mode="normal" in2="BackgroundImageFix" result="effect1_dropShadow"/>
<feBlend mode="normal" in="SourceGraphic" in2="effect1_dropShadow" result="shape"/>
</filter>
</defs>
</svg>
